<svg width="100%" height="100%" viewBox="0 0 24 24" fill="none" xmlns="http://www.w3.org/2000/svg">
<path d="M13.5 5.24999C13.5 4.92318 13.2884 4.634 12.9769 4.53513C12.6654 4.43627 12.3257 4.55049 12.1373 4.81748L6.13728 13.3175C5.9757 13.5464 5.95518 13.8463 6.08409 14.095C6.21299 14.3438 6.46982 14.5 6.75 14.5H10.75V18.75C10.75 19.0796 10.9651 19.3705 11.2802 19.4671C11.5953 19.5636 11.9366 19.4432 12.1212 19.1702L17.8712 10.6702C18.0267 10.4404 18.0426 10.1434 17.9125 9.89834C17.7823 9.65322 17.5275 9.49999 17.25 9.49999H13.5V5.24999Z" fill="currentColor"/>
</svg>
