<svg width="100%" height="100%" viewBox="0 0 24 24" fill="none" xmlns="http://www.w3.org/2000/svg">
<path d="M6 4.25C4.48122 4.25 3.25 5.48122 3.25 7V7.75C3.25 8.02614 3.47386 8.25 3.75 8.25H20.75C21.0261 8.25 21.25 8.02614 21.25 7.75V7C21.25 5.48122 20.0188 4.25 18.5 4.25H6Z" fill="currentColor"/>
<path fill-rule="evenodd" clip-rule="evenodd" d="M3.25 16.5V10.25C3.25 9.97386 3.47386 9.75 3.75 9.75H20.75C21.0261 9.75 21.25 9.97386 21.25 10.25V16.5C21.25 18.0188 20.0188 19.25 18.5 19.25H6C4.48122 19.25 3.25 18.0188 3.25 16.5ZM13.25 15C12.8358 15 12.5 15.3358 12.5 15.75C12.5 16.1642 12.8358 16.5 13.25 16.5H17.25C17.6642 16.5 18 16.1642 18 15.75C18 15.3358 17.6642 15 17.25 15H13.25Z" fill="currentColor"/>
</svg>
