<svg width="100%" height="100%" viewBox="0 0 24 24" fill="none" xmlns="http://www.w3.org/2000/svg">
<path fill-rule="evenodd" clip-rule="evenodd" d="M12 20C16.4183 20 20 16.4183 20 12C20 7.58172 16.4183 4 12 4C7.58172 4 4 7.58172 4 12C4 16.4183 7.58172 20 12 20ZM15.0303 11.0303C15.3232 10.7374 15.3232 10.2626 15.0303 9.96967C14.7374 9.67678 14.2626 9.67678 13.9697 9.96967L11 12.9393L10.0303 11.9697C9.73744 11.6768 9.26256 11.6768 8.96967 11.9697C8.67678 12.2626 8.67678 12.7374 8.96967 13.0303L10.4697 14.5303C10.7626 14.8232 11.2374 14.8232 11.5303 14.5303L15.0303 11.0303Z" fill="currentColor"/>
</svg>
