<svg width="100%" height="100%" viewBox="0 0 24 24" fill="none" xmlns="http://www.w3.org/2000/svg">
<path fill-rule="evenodd" clip-rule="evenodd" d="M6.25 4.5C5.2835 4.5 4.5 5.2835 4.5 6.25V13.25C4.5 14.2165 5.2835 15 6.25 15H9V17.75C9 18.7165 9.7835 19.5 10.75 19.5H17.75C18.7165 19.5 19.5 18.7165 19.5 17.75V10.75C19.5 9.7835 18.7165 9 17.75 9H15V6.25C15 5.2835 14.2165 4.5 13.25 4.5H6.25ZM9 10.75V13.5H6.25C6.11193 13.5 6 13.3881 6 13.25V6.25C6 6.11193 6.11193 6 6.25 6H13.25C13.3881 6 13.5 6.11193 13.5 6.25V9H10.75C9.7835 9 9 9.7835 9 10.75Z" fill="currentColor"/>
</svg>
