<svg width="100%" height="100%" viewBox="0 0 24 24" fill="none" xmlns="http://www.w3.org/2000/svg">
<path d="M4.5 8.75C4.5 7.23122 5.73122 6 7.25 6H9.03875C9.87416 6 10.6643 6.37975 11.1861 7.03209L11.9852 8.03087C12.2224 8.32739 12.5815 8.5 12.9613 8.5H16.75C18.2688 8.5 19.5 9.73122 19.5 11.25V12.6785C19.5 12.8862 19.258 13.0074 19.0804 12.8996C18.4007 12.4874 17.603 12.25 16.75 12.25C14.2647 12.25 12.25 14.2647 12.25 16.75C12.25 17.603 12.4874 18.4007 12.8996 19.0804C13.0074 19.258 12.8862 19.5 12.6785 19.5H7.25C5.73122 19.5 4.5 18.2688 4.5 16.75V8.75Z" fill="currentColor"/>
<path d="M14 16.75C14 16.3358 14.3358 16 14.75 16H16V14.75C16 14.3358 16.3358 14 16.75 14C17.1642 14 17.5 14.3358 17.5 14.75V16H18.75C19.1642 16 19.5 16.3358 19.5 16.75C19.5 17.1642 19.1642 17.5 18.75 17.5H17.5V18.75C17.5 19.1642 17.1642 19.5 16.75 19.5C16.3358 19.5 16 19.1642 16 18.75V17.5H14.75C14.3358 17.5 14 17.1642 14 16.75Z" fill="currentColor"/>
</svg>
