<svg width="100%" height="100%" viewBox="0 0 24 24" fill="none" xmlns="http://www.w3.org/2000/svg">
<path d="M11.625 5.625C12.0392 5.625 12.375 5.96079 12.375 6.375V10.5643L13.3447 9.59467C13.6376 9.30178 14.1124 9.30178 14.4053 9.59467C14.6982 9.88756 14.6982 10.3624 14.4053 10.6553L12.1553 12.9053C12.0834 12.9772 12.0005 13.0315 11.9121 13.0681C11.8237 13.1048 11.7267 13.125 11.625 13.125C11.5233 13.125 11.4263 13.1048 11.3379 13.0681C11.2495 13.0315 11.1666 12.9772 11.0947 12.9053L8.84467 10.6553C8.55178 10.3624 8.55178 9.88756 8.84467 9.59467C9.13756 9.30178 9.61244 9.30178 9.90533 9.59467L10.875 10.5643V6.375C10.875 5.96079 11.2108 5.625 11.625 5.625Z" fill="currentColor"/>
<path d="M6.375 17.625C5.96079 17.625 5.625 17.2892 5.625 16.875V11.625C5.625 11.2108 5.96079 10.875 6.375 10.875H6.90013C7.16534 10.875 7.4197 10.9804 7.60723 11.1679L10.9179 14.4786C11.3084 14.8691 11.9416 14.8691 12.3321 14.4786L15.6428 11.1679C15.8303 10.9804 16.0847 10.875 16.3499 10.875H16.875C17.2892 10.875 17.625 11.2108 17.625 11.625V16.875C17.625 17.2892 17.2892 17.625 16.875 17.625H6.375Z" fill="currentColor"/>
</svg>
