<svg width="100%" height="100%" viewBox="0 0 24 24" fill="none" xmlns="http://www.w3.org/2000/svg">
<path d="M11.25 15.75C11.25 16.1642 11.5858 16.5 12 16.5C12.4142 16.5 12.75 16.1642 12.75 15.75V5.25C12.75 4.83579 12.4142 4.5 12 4.5C11.5858 4.5 11.25 4.83579 11.25 5.25L11.25 15.75Z" fill="currentColor"/>
<path d="M7.5 15.75C7.5 16.1642 7.83579 16.5 8.25 16.5C8.66421 16.5 9 16.1642 9 15.75L9 9.75C9 9.33579 8.66421 9 8.25 9C7.83579 9 7.5 9.33579 7.5 9.75L7.5 15.75Z" fill="currentColor"/>
<path d="M5.25 18C4.83579 18 4.5 18.3358 4.5 18.75C4.5 19.1642 4.83579 19.5 5.25 19.5H18.75C19.1642 19.5 19.5 19.1642 19.5 18.75C19.5 18.3358 19.1642 18 18.75 18H5.25Z" fill="currentColor"/>
<path d="M15.75 16.5C15.3358 16.5 15 16.1642 15 15.75V9.75C15 9.33579 15.3358 9 15.75 9C16.1642 9 16.5 9.33579 16.5 9.75V15.75C16.5 16.1642 16.1642 16.5 15.75 16.5Z" fill="currentColor"/>
</svg>
