<svg width="100%" height="100%" viewBox="0 0 24 24" fill="none" xmlns="http://www.w3.org/2000/svg">
<path fill-rule="evenodd" clip-rule="evenodd" d="M9 11L9 7.25C9 5.73121 10.2312 4.49998 11.75 4.5L12.25 4.50001C13.7688 4.50002 15 5.73123 15 7.25001V11H15.25C16.7688 11 18 12.2313 18 13.75V16.75C18 18.2688 16.7688 19.5 15.25 19.5H8.75C7.23122 19.5 6 18.2688 6 16.75V13.75C6 12.2313 7.23122 11 8.75 11H9ZM10.5 11L10.5 7.25C10.5 6.55964 11.0597 5.99999 11.75 6L12.25 6.00001C12.9404 6.00001 13.5 6.55965 13.5 7.25001V11H10.5ZM11.0005 15.217C10.9962 15.3482 11.0178 15.479 11.064 15.602C11.1102 15.7249 11.1802 15.8375 11.2699 15.9334C11.3596 16.0293 11.4674 16.1065 11.587 16.1608C11.7066 16.215 11.8357 16.2452 11.9669 16.2495C12.0982 16.2538 12.229 16.2323 12.3519 16.1861C12.4748 16.1399 12.5875 16.0699 12.6833 15.9801C12.7792 15.8904 12.8565 15.7827 12.9107 15.6631C12.965 15.5435 12.9951 15.4144 12.9995 15.2831C13.0038 15.1519 12.9822 15.021 12.936 14.8981C12.8898 14.7752 12.8198 14.6626 12.7301 14.5667C12.6404 14.4708 12.5326 14.3936 12.413 14.3393C12.2934 14.2851 12.1643 14.2549 12.0331 14.2506C11.9018 14.2462 11.771 14.2678 11.6481 14.314C11.5252 14.3602 11.4125 14.4302 11.3167 14.5199C11.2208 14.6097 11.1435 14.7174 11.0893 14.837C11.035 14.9566 11.0049 15.0857 11.0005 15.217Z" fill="currentColor"/>
</svg>
