<svg width="36" height="39" viewBox="0 0 36 39" fill="none" xmlns="http://www.w3.org/2000/svg">
<g filter="url(#filter0_d_3706_356)">
<mask id="mask0_3706_356" style="mask-type:luminance" maskUnits="userSpaceOnUse" x="3" y="19" width="14" height="14">
<path d="M3 19.5H16.5V33H3V19.5Z" fill="white"/>
</mask>
<g mask="url(#mask0_3706_356)">
<path d="M16.3336 26.3337C16.3336 26.5517 16.3227 26.7696 16.3016 26.9868C16.2797 27.204 16.2477 27.4196 16.2055 27.6337C16.1625 27.8485 16.1094 28.0595 16.0461 28.2688C15.9828 28.4774 15.9094 28.6829 15.8258 28.8845C15.7422 29.086 15.6492 29.2837 15.5461 29.4759C15.443 29.6688 15.3313 29.8556 15.2102 30.0376C15.0883 30.2188 14.9586 30.3938 14.8203 30.5626C14.6813 30.7313 14.5352 30.8931 14.3805 31.0478C14.2266 31.2017 14.0648 31.3485 13.8961 31.4868C13.7273 31.6251 13.5523 31.7556 13.3703 31.8767C13.1891 31.9978 13.0016 32.1103 12.8094 32.2126C12.6164 32.3157 12.4195 32.4087 12.218 32.4923C12.0164 32.5759 11.8109 32.6493 11.6016 32.7134C11.393 32.7767 11.1813 32.8298 10.9672 32.872C10.7531 32.9149 10.5375 32.947 10.3203 32.9681C10.1031 32.9892 9.88516 33.0001 9.66641 33.0001C9.44844 33.0001 9.23047 32.9892 9.01328 32.9681C8.79609 32.947 8.58047 32.9149 8.36641 32.872C8.15156 32.8298 7.94063 32.7767 7.73125 32.7134C7.52266 32.6493 7.31719 32.5759 7.11563 32.4923C6.91406 32.4087 6.71641 32.3157 6.52422 32.2126C6.33125 32.1103 6.14453 31.9978 5.9625 31.8767C5.78125 31.7556 5.60625 31.6251 5.4375 31.4868C5.26875 31.3485 5.10703 31.2017 4.95234 31.0478C4.79844 30.8931 4.65156 30.7313 4.51328 30.5626C4.375 30.3938 4.24453 30.2188 4.12344 30.0376C4.00234 29.8556 3.88984 29.6688 3.7875 29.4759C3.68438 29.2837 3.59141 29.086 3.50781 28.8845C3.42422 28.6829 3.35078 28.4774 3.28672 28.2688C3.22344 28.0595 3.17031 27.8485 3.12813 27.6337C3.08516 27.4196 3.05313 27.204 3.03203 26.9868C3.01094 26.7696 3 26.5517 3 26.3337C3 26.1149 3.01094 25.897 3.03203 25.6798C3.05313 25.4626 3.08516 25.247 3.12813 25.0329C3.17031 24.8188 3.22344 24.6071 3.28672 24.3985C3.35078 24.1892 3.42422 23.9837 3.50781 23.7821C3.59141 23.5806 3.68438 23.3837 3.7875 23.1907C3.88984 22.9985 4.00234 22.811 4.12344 22.6298C4.24453 22.4478 4.375 22.2728 4.51328 22.104C4.65156 21.9353 4.79844 21.7735 4.95234 21.6196C5.10703 21.4649 5.26875 21.3188 5.4375 21.1798C5.60625 21.0415 5.78125 20.9118 5.9625 20.7899C6.14453 20.6688 6.33125 20.5571 6.52422 20.454C6.71641 20.3509 6.91406 20.2579 7.11563 20.1743C7.31719 20.0907 7.52266 20.0173 7.73125 19.954C7.94063 19.8907 8.15156 19.8376 8.36641 19.7946C8.58047 19.7524 8.79609 19.7204 9.01328 19.6985C9.23047 19.6774 9.44844 19.6665 9.66641 19.6665C9.88516 19.6665 10.1031 19.6774 10.3203 19.6985C10.5375 19.7204 10.7531 19.7524 10.9672 19.7946C11.1813 19.8376 11.393 19.8907 11.6016 19.954C11.8109 20.0173 12.0164 20.0907 12.218 20.1743C12.4195 20.2579 12.6164 20.3509 12.8094 20.454C13.0016 20.5571 13.1891 20.6688 13.3703 20.7899C13.5523 20.9118 13.7273 21.0415 13.8961 21.1798C14.0648 21.3188 14.2266 21.4649 14.3805 21.6196C14.5352 21.7735 14.6813 21.9353 14.8203 22.104C14.9586 22.2728 15.0883 22.4478 15.2102 22.6298C15.3313 22.811 15.443 22.9985 15.5461 23.1907C15.6492 23.3837 15.7422 23.5806 15.8258 23.7821C15.9094 23.9837 15.9828 24.1892 16.0461 24.3985C16.1094 24.6071 16.1625 24.8188 16.2055 25.0329C16.2477 25.247 16.2797 25.4626 16.3016 25.6798C16.3227 25.897 16.3336 26.1149 16.3336 26.3337Z" fill="black"/>
</g>
<mask id="mask1_3706_356" style="mask-type:luminance" maskUnits="userSpaceOnUse" x="5" y="3" width="28" height="28">
<path d="M5.30005 3H33.0001V30.7H5.30005V3Z" fill="white"/>
</mask>
<g mask="url(#mask1_3706_356)">
<path d="M19.8376 24.1109C19.8376 19.7211 16.279 16.1625 11.8891 16.1625C8.25396 16.1625 5.30786 13.2164 5.30786 9.58125C5.30786 5.94609 8.25396 3 11.8891 3H26.4188C30.054 3 33.0001 5.94609 33.0001 9.58125V24.1109C33.0001 27.7461 30.054 30.6922 26.4188 30.6922C22.7836 30.6922 19.8376 27.7461 19.8376 24.1109Z" fill="black"/>
</g>
</g>
<defs>
<filter id="filter0_d_3706_356" x="0" y="-0.75" width="36" height="42" filterUnits="userSpaceOnUse" color-interpolation-filters="sRGB">
<feFlood flood-opacity="0" result="BackgroundImageFix"/>
<feColorMatrix in="SourceAlpha" type="matrix" values="0 0 0 0 0 0 0 0 0 0 0 0 0 0 0 0 0 0 127 0" result="hardAlpha"/>
<feMorphology radius="1.5" operator="erode" in="SourceAlpha" result="effect1_dropShadow_3706_356"/>
<feOffset dy="2.25"/>
<feGaussianBlur stdDeviation="2.25"/>
<feComposite in2="hardAlpha" operator="out"/>
<feColorMatrix type="matrix" values="0 0 0 0 0.141176 0 0 0 0 0.141176 0 0 0 0 0.141176 0 0 0 0.1 0"/>
<feBlend mode="normal" in2="BackgroundImageFix" result="effect1_dropShadow_3706_356"/>
<feBlend mode="normal" in="SourceGraphic" in2="effect1_dropShadow_3706_356" result="shape"/>
</filter>
</defs>
</svg>
