<svg width="100%" height="100%" viewBox="0 0 24 24" fill="none" xmlns="http://www.w3.org/2000/svg">
<path d="M5.29719 7.66039C5.05668 7.48001 4.70805 7.55162 4.6185 7.83861C4.54149 8.08539 4.5 8.34785 4.5 8.62V15.38C4.5 16.827 5.67301 18 7.12 18H16.88C18.327 18 19.5 16.827 19.5 15.38V8.62C19.5 8.34785 19.4585 8.08539 19.3815 7.83861C19.2919 7.55162 18.9433 7.48001 18.7028 7.66039L13.65 11.45C12.6722 12.1833 11.3278 12.1833 10.35 11.45L5.29719 7.66039Z" fill="currentColor"/>
<path d="M17.4026 6.76053C17.7 6.5375 17.6494 6.08723 17.282 6.03065C17.151 6.01047 17.0167 6 16.88 6H7.12C6.98329 6 6.84903 6.01047 6.71797 6.03065C6.35059 6.08723 6.3 6.5375 6.59737 6.76053L11.25 10.25C11.6944 10.5833 12.3056 10.5833 12.75 10.25L17.4026 6.76053Z" fill="currentColor"/>
</svg>
